<svg width="781" height="158" viewBox="0 0 781 158" fill="none" xmlns="http://www.w3.org/2000/svg">
<path d="M14.2898 56H0.6875L18.3551 3.63636H35.2045L52.8722 56H39.2699L26.9716 16.8295H26.5625L14.2898 56ZM12.4744 35.392H40.9062V45.0057H12.4744V35.392ZM578.573 56.6648C576.067 56.6648 573.843 56.2472 571.9 55.4119C569.974 54.5597 568.448 53.2812 567.323 51.5767C566.215 49.8551 565.661 47.6989 565.661 45.108C565.661 42.9261 566.045 41.0852 566.812 39.5852C567.579 38.0852 568.636 36.8665 569.982 35.929C571.329 34.9915 572.88 34.2841 574.636 33.8068C576.391 33.3125 578.266 32.9801 580.261 32.8097C582.494 32.6051 584.292 32.392 585.656 32.1705C587.019 31.9318 588.008 31.5994 588.621 31.1733C589.252 30.7301 589.567 30.108 589.567 29.3068V29.179C589.567 27.8665 589.116 26.8523 588.212 26.1364C587.309 25.4205 586.09 25.0625 584.556 25.0625C582.903 25.0625 581.573 25.4205 580.567 26.1364C579.562 26.8523 578.923 27.8409 578.65 29.1023L567.119 28.6932C567.46 26.3068 568.337 24.1761 569.752 22.3011C571.184 20.4091 573.144 18.9261 575.633 17.8523C578.138 16.7614 581.147 16.2159 584.658 16.2159C587.164 16.2159 589.474 16.5142 591.587 17.1108C593.701 17.6903 595.542 18.5426 597.11 19.6676C598.678 20.7756 599.888 22.1392 600.741 23.7585C601.61 25.3778 602.045 27.2273 602.045 29.3068V56H590.283V50.5284H589.977C589.278 51.858 588.383 52.983 587.292 53.9034C586.218 54.8239 584.948 55.5142 583.482 55.9744C582.033 56.4347 580.397 56.6648 578.573 56.6648ZM582.434 48.483C583.781 48.483 584.991 48.2102 586.065 47.6648C587.156 47.1193 588.025 46.3693 588.673 45.4148C589.32 44.4432 589.644 43.3182 589.644 42.0398V38.3068C589.286 38.4943 588.852 38.6648 588.34 38.8182C587.846 38.9716 587.3 39.1165 586.704 39.2528C586.107 39.3892 585.494 39.5085 584.863 39.6108C584.232 39.7131 583.627 39.8068 583.048 39.892C581.871 40.0795 580.866 40.3693 580.031 40.7614C579.212 41.1534 578.582 41.6648 578.138 42.2955C577.712 42.9091 577.499 43.642 577.499 44.4943C577.499 45.7898 577.96 46.7784 578.88 47.4602C579.817 48.142 581.002 48.483 582.434 48.483ZM624.033 56.5625C621.136 56.5625 618.502 55.8125 616.133 54.3125C613.763 52.8125 611.871 50.5625 610.457 47.5625C609.042 44.5625 608.335 40.8381 608.335 36.3892C608.335 31.7699 609.067 27.9687 610.533 24.9858C611.999 22.0028 613.917 19.7955 616.286 18.3636C618.673 16.9318 621.238 16.2159 623.982 16.2159C626.045 16.2159 627.809 16.5739 629.275 17.2898C630.741 17.9886 631.951 18.892 632.906 20C633.86 21.108 634.585 22.2585 635.079 23.4517H635.335V3.63636H647.837V56H635.462V49.6335H635.079C634.55 50.8438 633.8 51.9773 632.829 53.0341C631.857 54.0909 630.638 54.9432 629.173 55.5909C627.724 56.2386 626.011 56.5625 624.033 56.5625ZM628.38 46.821C629.897 46.821 631.192 46.3949 632.266 45.5426C633.34 44.6733 634.167 43.4545 634.746 41.8864C635.326 40.3182 635.616 38.4773 635.616 36.3636C635.616 34.2159 635.326 32.3665 634.746 30.8153C634.184 29.2642 633.357 28.071 632.266 27.2358C631.192 26.4006 629.897 25.983 628.38 25.983C626.829 25.983 625.516 26.4091 624.442 27.2614C623.369 28.1136 622.55 29.3153 621.988 30.8665C621.442 32.4176 621.17 34.25 621.17 36.3636C621.17 38.4773 621.451 40.3182 622.013 41.8864C622.576 43.4545 623.386 44.6733 624.442 45.5426C625.516 46.3949 626.829 46.821 628.38 46.821ZM655.744 56V16.7273H667.634V23.9375H668.068C668.886 21.5511 670.267 19.6676 672.21 18.2869C674.153 16.9062 676.472 16.2159 679.165 16.2159C681.892 16.2159 684.227 16.9148 686.17 18.3125C688.114 19.7102 689.349 21.5852 689.878 23.9375H690.287C691.02 21.6023 692.452 19.7358 694.582 18.3381C696.713 16.9233 699.227 16.2159 702.125 16.2159C705.841 16.2159 708.858 17.4091 711.176 19.7955C713.494 22.1648 714.653 25.4205 714.653 29.5625V56H702.151V32.4261C702.151 30.4659 701.648 28.9744 700.642 27.9517C699.636 26.9119 698.332 26.392 696.73 26.392C695.009 26.392 693.653 26.9545 692.665 28.0795C691.693 29.1875 691.207 30.679 691.207 32.554V56H679.19V32.2983C679.19 30.4744 678.696 29.0341 677.707 27.9773C676.719 26.9205 675.415 26.392 673.795 26.392C672.705 26.392 671.741 26.6562 670.906 27.1847C670.071 27.696 669.415 28.429 668.938 29.3835C668.477 30.3381 668.247 31.4631 668.247 32.7585V56H655.744ZM722.401 56V16.7273H734.903V56H722.401ZM728.665 12.1506C726.909 12.1506 725.401 11.571 724.139 10.4119C722.878 9.23579 722.247 7.82102 722.247 6.16761C722.247 4.53125 722.878 3.13352 724.139 1.97443C725.401 0.798293 726.909 0.210224 728.665 0.210224C730.438 0.210224 731.946 0.798293 733.19 1.97443C734.452 3.13352 735.082 4.53125 735.082 6.16761C735.082 7.82102 734.452 9.23579 733.19 10.4119C731.946 11.571 730.438 12.1506 728.665 12.1506ZM755.364 33.6023V56H742.862V16.7273H754.751V23.9375H755.185C756.055 21.5341 757.538 19.6506 759.634 18.2869C761.731 16.9062 764.228 16.2159 767.126 16.2159C769.887 16.2159 772.282 16.8381 774.31 18.0824C776.356 19.3097 777.941 21.0312 779.066 23.2472C780.208 25.446 780.771 28.0199 780.754 30.9688V56H768.251V33.4233C768.268 31.2415 767.714 29.5369 766.589 28.3097C765.481 27.0824 763.938 26.4688 761.961 26.4688C760.648 26.4688 759.489 26.7585 758.484 27.3381C757.495 27.9006 756.728 28.7102 756.183 29.767C755.654 30.8239 755.381 32.1023 755.364 33.6023ZM37.25 115.719L25.7699 116.026C25.6506 115.207 25.3267 114.483 24.7983 113.852C24.2699 113.205 23.5795 112.702 22.7273 112.344C21.892 111.969 20.9205 111.781 19.8125 111.781C18.3636 111.781 17.1278 112.071 16.1051 112.651C15.0994 113.23 14.6051 114.014 14.6222 115.003C14.6051 115.77 14.9119 116.435 15.5426 116.997C16.1903 117.56 17.3409 118.011 18.9943 118.352L26.5625 119.784C30.483 120.534 33.3977 121.778 35.3068 123.517C37.233 125.256 38.2045 127.557 38.2216 130.42C38.2045 133.114 37.4034 135.457 35.8182 137.452C34.25 139.446 32.1023 140.997 29.375 142.105C26.6477 143.196 23.5284 143.741 20.017 143.741C14.4091 143.741 9.9858 142.591 6.74716 140.29C3.52557 137.972 1.68466 134.869 1.22443 130.983L13.5739 130.676C13.8466 132.108 14.554 133.199 15.696 133.949C16.8381 134.699 18.2955 135.074 20.0682 135.074C21.6705 135.074 22.9744 134.776 23.9801 134.179C24.9858 133.582 25.4972 132.79 25.5142 131.801C25.4972 130.915 25.1051 130.207 24.3381 129.679C23.571 129.134 22.3693 128.707 20.733 128.401L13.8807 127.097C9.94318 126.381 7.01136 125.06 5.08523 123.134C3.15909 121.19 2.20455 118.719 2.22159 115.719C2.20455 113.094 2.90341 110.852 4.31818 108.994C5.73295 107.119 7.74432 105.688 10.3523 104.699C12.9602 103.71 16.0369 103.216 19.5824 103.216C24.9006 103.216 29.0938 104.332 32.1619 106.565C35.2301 108.781 36.9261 111.832 37.25 115.719ZM52.022 157.727C50.522 157.727 49.1072 157.608 47.7777 157.369C46.4482 157.148 45.3061 156.849 44.3516 156.474L47.1129 147.398C48.3402 147.807 49.4482 148.045 50.4368 148.114C51.4425 148.182 52.3033 148.02 53.0192 147.628C53.7521 147.253 54.3146 146.58 54.7067 145.608L55.1925 144.432L41.2322 103.727H54.3232L61.559 131.75H61.968L69.3061 103.727H82.4737L67.6697 146.759C66.9538 148.906 65.9396 150.798 64.6271 152.435C63.3317 154.088 61.6527 155.384 59.5902 156.321C57.5447 157.259 55.022 157.727 52.022 157.727ZM121.555 115.719L110.075 116.026C109.955 115.207 109.631 114.483 109.103 113.852C108.575 113.205 107.884 112.702 107.032 112.344C106.197 111.969 105.225 111.781 104.117 111.781C102.668 111.781 101.433 112.071 100.41 112.651C99.4041 113.23 98.9098 114.014 98.9268 115.003C98.9098 115.77 99.2166 116.435 99.8473 116.997C100.495 117.56 101.646 118.011 103.299 118.352L110.867 119.784C114.788 120.534 117.702 121.778 119.612 123.517C121.538 125.256 122.509 127.557 122.526 130.42C122.509 133.114 121.708 135.457 120.123 137.452C118.555 139.446 116.407 140.997 113.68 142.105C110.952 143.196 107.833 143.741 104.322 143.741C98.7138 143.741 94.2905 142.591 91.0518 140.29C87.8303 137.972 85.9893 134.869 85.5291 130.983L97.8786 130.676C98.1513 132.108 98.8587 133.199 100.001 133.949C101.143 134.699 102.6 135.074 104.373 135.074C105.975 135.074 107.279 134.776 108.285 134.179C109.29 133.582 109.802 132.79 109.819 131.801C109.802 130.915 109.41 130.207 108.643 129.679C107.876 129.134 106.674 128.707 105.038 128.401L98.1854 127.097C94.2479 126.381 91.3161 125.06 89.3899 123.134C87.4638 121.19 86.5092 118.719 86.5263 115.719C86.5092 113.094 87.2081 110.852 88.6229 108.994C90.0376 107.119 92.049 105.688 94.657 104.699C97.2649 103.71 100.342 103.216 103.887 103.216C109.205 103.216 113.398 104.332 116.467 106.565C119.535 108.781 121.231 111.832 121.555 115.719ZM150.849 103.727V112.932H126.074V103.727H150.849ZM131.264 94.3182H143.767V130.651C143.767 131.418 143.886 132.04 144.125 132.517C144.381 132.977 144.747 133.31 145.224 133.514C145.702 133.702 146.273 133.795 146.938 133.795C147.415 133.795 147.918 133.753 148.446 133.668C148.991 133.565 149.401 133.48 149.673 133.412L151.565 142.438C150.969 142.608 150.125 142.821 149.034 143.077C147.96 143.332 146.673 143.494 145.173 143.562C142.241 143.699 139.727 143.358 137.631 142.54C135.551 141.705 133.957 140.409 132.849 138.653C131.759 136.898 131.23 134.69 131.264 132.031V94.3182ZM175.165 143.741C171.057 143.741 167.511 142.932 164.528 141.312C161.563 139.676 159.278 137.349 157.676 134.332C156.091 131.298 155.298 127.693 155.298 123.517C155.298 119.46 156.099 115.915 157.702 112.881C159.304 109.83 161.562 107.46 164.477 105.773C167.392 104.068 170.827 103.216 174.781 103.216C177.577 103.216 180.134 103.651 182.452 104.52C184.77 105.389 186.773 106.676 188.46 108.381C190.148 110.085 191.46 112.19 192.398 114.696C193.335 117.185 193.804 120.04 193.804 123.261V126.381H159.67V119.119H182.17C182.153 117.79 181.838 116.605 181.224 115.565C180.611 114.526 179.767 113.716 178.693 113.136C177.636 112.54 176.418 112.241 175.037 112.241C173.639 112.241 172.386 112.557 171.278 113.188C170.17 113.801 169.293 114.645 168.645 115.719C167.997 116.776 167.656 117.977 167.622 119.324V126.713C167.622 128.315 167.938 129.722 168.568 130.932C169.199 132.125 170.094 133.054 171.253 133.719C172.412 134.384 173.793 134.716 175.395 134.716C176.503 134.716 177.509 134.562 178.412 134.256C179.315 133.949 180.091 133.497 180.739 132.901C181.386 132.304 181.872 131.571 182.196 130.702L193.676 131.034C193.199 133.608 192.151 135.849 190.531 137.759C188.929 139.651 186.824 141.125 184.216 142.182C181.608 143.222 178.591 143.741 175.165 143.741ZM200.19 143V103.727H212.079V110.938H212.513C213.332 108.551 214.712 106.668 216.656 105.287C218.599 103.906 220.917 103.216 223.61 103.216C226.337 103.216 228.673 103.915 230.616 105.312C232.559 106.71 233.795 108.585 234.323 110.938H234.732C235.465 108.602 236.897 106.736 239.028 105.338C241.158 103.923 243.673 103.216 246.57 103.216C250.286 103.216 253.303 104.409 255.621 106.795C257.94 109.165 259.099 112.42 259.099 116.562V143H246.596V119.426C246.596 117.466 246.093 115.974 245.087 114.952C244.082 113.912 242.778 113.392 241.175 113.392C239.454 113.392 238.099 113.955 237.11 115.08C236.138 116.187 235.653 117.679 235.653 119.554V143H223.636V119.298C223.636 117.474 223.141 116.034 222.153 114.977C221.164 113.92 219.86 113.392 218.241 113.392C217.15 113.392 216.187 113.656 215.352 114.185C214.516 114.696 213.86 115.429 213.383 116.384C212.923 117.338 212.692 118.463 212.692 119.759V143H200.19ZM282.315 143V90.6364H294.817V110.452H295.073C295.585 109.259 296.309 108.108 297.246 107C298.201 105.892 299.411 104.989 300.877 104.29C302.36 103.574 304.133 103.216 306.195 103.216C308.923 103.216 311.471 103.932 313.84 105.364C316.227 106.795 318.153 109.003 319.619 111.986C321.085 114.969 321.817 118.77 321.817 123.389C321.817 127.838 321.11 131.562 319.695 134.562C318.298 137.562 316.406 139.812 314.019 141.312C311.65 142.812 309.016 143.562 306.119 143.562C304.141 143.562 302.428 143.239 300.979 142.591C299.531 141.943 298.312 141.091 297.323 140.034C296.352 138.977 295.602 137.844 295.073 136.634H294.69V143H282.315ZM294.562 123.364C294.562 125.477 294.843 127.318 295.406 128.886C295.985 130.455 296.812 131.673 297.886 132.543C298.977 133.395 300.281 133.821 301.798 133.821C303.332 133.821 304.636 133.395 305.71 132.543C306.783 131.673 307.593 130.455 308.138 128.886C308.701 127.318 308.982 125.477 308.982 123.364C308.982 121.25 308.701 119.418 308.138 117.866C307.593 116.315 306.783 115.114 305.71 114.261C304.653 113.409 303.349 112.983 301.798 112.983C300.263 112.983 298.96 113.401 297.886 114.236C296.812 115.071 295.985 116.264 295.406 117.815C294.843 119.366 294.562 121.216 294.562 123.364ZM353.707 126.048V103.727H366.185V143H354.27V135.688H353.861C352.991 138.091 351.509 140 349.412 141.415C347.332 142.812 344.818 143.511 341.869 143.511C339.193 143.511 336.841 142.898 334.812 141.67C332.784 140.443 331.207 138.73 330.082 136.531C328.957 134.315 328.386 131.724 328.369 128.759V103.727H340.872V126.304C340.889 128.435 341.452 130.114 342.56 131.341C343.668 132.568 345.176 133.182 347.085 133.182C348.33 133.182 349.446 132.909 350.435 132.364C351.44 131.801 352.233 130.991 352.812 129.935C353.409 128.861 353.707 127.565 353.707 126.048ZM374.143 143V103.727H386.646V143H374.143ZM380.407 99.1506C378.651 99.1506 377.143 98.571 375.881 97.4119C374.62 96.2358 373.989 94.821 373.989 93.1676C373.989 91.5312 374.62 90.1335 375.881 88.9744C377.143 87.7983 378.651 87.2102 380.407 87.2102C382.18 87.2102 383.688 87.7983 384.933 88.9744C386.194 90.1335 386.825 91.5312 386.825 93.1676C386.825 94.821 386.194 96.2358 384.933 97.4119C383.688 98.571 382.18 99.1506 380.407 99.1506ZM407.107 90.6364V143H394.604V90.6364H407.107ZM437.232 103.727V112.932H412.457V103.727H437.232ZM417.647 94.3182H430.15V130.651C430.15 131.418 430.269 132.04 430.508 132.517C430.763 132.977 431.13 133.31 431.607 133.514C432.085 133.702 432.656 133.795 433.32 133.795C433.798 133.795 434.3 133.753 434.829 133.668C435.374 133.565 435.783 133.48 436.056 133.412L437.948 142.438C437.352 142.608 436.508 142.821 435.417 143.077C434.343 143.332 433.056 143.494 431.556 143.562C428.624 143.699 426.11 143.358 424.013 142.54C421.934 141.705 420.34 140.409 419.232 138.653C418.141 136.898 417.613 134.69 417.647 132.031V94.3182ZM459.08 143V90.6364H471.583V110.452H471.839C472.35 109.259 473.075 108.108 474.012 107C474.967 105.892 476.177 104.989 477.643 104.29C479.126 103.574 480.898 103.216 482.961 103.216C485.688 103.216 488.237 103.932 490.606 105.364C492.992 106.795 494.918 109.003 496.384 111.986C497.85 114.969 498.583 118.77 498.583 123.389C498.583 127.838 497.876 131.562 496.461 134.562C495.063 137.562 493.171 139.812 490.785 141.312C488.415 142.812 485.782 143.562 482.884 143.562C480.907 143.562 479.194 143.239 477.745 142.591C476.296 141.943 475.077 141.091 474.089 140.034C473.117 138.977 472.367 137.844 471.839 136.634H471.455V143H459.08ZM471.327 123.364C471.327 125.477 471.609 127.318 472.171 128.886C472.751 130.455 473.577 131.673 474.651 132.543C475.742 133.395 477.046 133.821 478.563 133.821C480.097 133.821 481.401 133.395 482.475 132.543C483.549 131.673 484.359 130.455 484.904 128.886C485.467 127.318 485.748 125.477 485.748 123.364C485.748 121.25 485.467 119.418 484.904 117.866C484.359 116.315 483.549 115.114 482.475 114.261C481.418 113.409 480.114 112.983 478.563 112.983C477.029 112.983 475.725 113.401 474.651 114.236C473.577 115.071 472.751 116.264 472.171 117.815C471.609 119.366 471.327 121.216 471.327 123.364ZM511.514 157.727C510.014 157.727 508.599 157.608 507.27 157.369C505.94 157.148 504.798 156.849 503.844 156.474L506.605 147.398C507.832 147.807 508.94 148.045 509.929 148.114C510.935 148.182 511.795 148.02 512.511 147.628C513.244 147.253 513.807 146.58 514.199 145.608L514.685 144.432L500.724 103.727H513.815L521.051 131.75H521.46L528.798 103.727H541.966L527.162 146.759C526.446 148.906 525.432 150.798 524.119 152.435C522.824 154.088 521.145 155.384 519.082 156.321C517.037 157.259 514.514 157.727 511.514 157.727ZM562.229 143V103.727H574.374V110.886H574.783C575.499 108.295 576.666 106.369 578.286 105.108C579.905 103.83 581.788 103.19 583.936 103.19C584.516 103.19 585.112 103.233 585.726 103.318C586.339 103.386 586.911 103.497 587.439 103.651V114.517C586.842 114.312 586.058 114.151 585.087 114.031C584.132 113.912 583.28 113.852 582.53 113.852C581.047 113.852 579.709 114.185 578.516 114.849C577.339 115.497 576.411 116.409 575.729 117.585C575.064 118.744 574.732 120.108 574.732 121.676V143H562.229ZM608.852 143.741C604.744 143.741 601.199 142.932 598.216 141.312C595.25 139.676 592.966 137.349 591.364 134.332C589.778 131.298 588.986 127.693 588.986 123.517C588.986 119.46 589.787 115.915 591.389 112.881C592.991 109.83 595.25 107.46 598.165 105.773C601.08 104.068 604.514 103.216 608.469 103.216C611.264 103.216 613.821 103.651 616.139 104.52C618.457 105.389 620.46 106.676 622.148 108.381C623.835 110.085 625.148 112.19 626.085 114.696C627.023 117.185 627.491 120.04 627.491 123.261V126.381H593.358V119.119H615.858C615.841 117.79 615.526 116.605 614.912 115.565C614.298 114.526 613.455 113.716 612.381 113.136C611.324 112.54 610.105 112.241 608.724 112.241C607.327 112.241 606.074 112.557 604.966 113.188C603.858 113.801 602.98 114.645 602.332 115.719C601.685 116.776 601.344 117.977 601.31 119.324V126.713C601.31 128.315 601.625 129.722 602.256 130.932C602.886 132.125 603.781 133.054 604.94 133.719C606.099 134.384 607.48 134.716 609.082 134.716C610.19 134.716 611.196 134.562 612.099 134.256C613.003 133.949 613.778 133.497 614.426 132.901C615.074 132.304 615.56 131.571 615.884 130.702L627.364 131.034C626.886 133.608 625.838 135.849 624.219 137.759C622.616 139.651 620.511 141.125 617.903 142.182C615.295 143.222 612.278 143.741 608.852 143.741ZM644.948 143.665C642.442 143.665 640.218 143.247 638.275 142.412C636.349 141.56 634.823 140.281 633.698 138.577C632.59 136.855 632.036 134.699 632.036 132.108C632.036 129.926 632.42 128.085 633.187 126.585C633.954 125.085 635.011 123.866 636.357 122.929C637.704 121.991 639.255 121.284 641.011 120.807C642.766 120.312 644.641 119.98 646.636 119.81C648.869 119.605 650.667 119.392 652.031 119.17C653.394 118.932 654.383 118.599 654.996 118.173C655.627 117.73 655.942 117.108 655.942 116.307V116.179C655.942 114.866 655.491 113.852 654.587 113.136C653.684 112.42 652.465 112.062 650.931 112.062C649.278 112.062 647.948 112.42 646.942 113.136C645.937 113.852 645.298 114.841 645.025 116.102L633.494 115.693C633.835 113.307 634.712 111.176 636.127 109.301C637.559 107.409 639.519 105.926 642.008 104.852C644.513 103.761 647.522 103.216 651.033 103.216C653.539 103.216 655.849 103.514 657.962 104.111C660.076 104.69 661.917 105.543 663.485 106.668C665.053 107.776 666.263 109.139 667.116 110.759C667.985 112.378 668.42 114.227 668.42 116.307V143H656.658V137.528H656.352C655.653 138.858 654.758 139.983 653.667 140.903C652.593 141.824 651.323 142.514 649.857 142.974C648.408 143.435 646.772 143.665 644.948 143.665ZM648.809 135.483C650.156 135.483 651.366 135.21 652.44 134.665C653.531 134.119 654.4 133.369 655.048 132.415C655.695 131.443 656.019 130.318 656.019 129.04V125.307C655.661 125.494 655.227 125.665 654.715 125.818C654.221 125.972 653.675 126.116 653.079 126.253C652.482 126.389 651.869 126.509 651.238 126.611C650.607 126.713 650.002 126.807 649.423 126.892C648.246 127.08 647.241 127.369 646.406 127.761C645.587 128.153 644.957 128.665 644.513 129.295C644.087 129.909 643.874 130.642 643.874 131.494C643.874 132.79 644.335 133.778 645.255 134.46C646.192 135.142 647.377 135.483 648.809 135.483ZM694.397 143.741C690.255 143.741 686.701 142.889 683.735 141.185C680.786 139.48 678.519 137.111 676.934 134.077C675.349 131.026 674.556 127.497 674.556 123.491C674.556 119.469 675.349 115.94 676.934 112.906C678.536 109.855 680.812 107.477 683.761 105.773C686.727 104.068 690.263 103.216 694.371 103.216C698.002 103.216 701.164 103.872 703.857 105.185C706.567 106.497 708.681 108.355 710.198 110.759C711.732 113.145 712.542 115.949 712.627 119.17H700.942C700.704 117.159 700.022 115.582 698.897 114.44C697.789 113.298 696.34 112.727 694.55 112.727C693.102 112.727 691.832 113.136 690.741 113.955C689.65 114.756 688.798 115.949 688.184 117.534C687.587 119.102 687.289 121.045 687.289 123.364C687.289 125.682 687.587 127.642 688.184 129.244C688.798 130.83 689.65 132.031 690.741 132.849C691.832 133.651 693.102 134.051 694.55 134.051C695.71 134.051 696.732 133.804 697.619 133.31C698.522 132.815 699.263 132.091 699.843 131.136C700.423 130.165 700.789 128.989 700.942 127.608H712.627C712.508 130.847 711.698 133.676 710.198 136.097C708.715 138.517 706.627 140.401 703.934 141.747C701.258 143.077 698.079 143.741 694.397 143.741ZM741.193 103.727V112.932H716.418V103.727H741.193ZM721.608 94.3182H734.111V130.651C734.111 131.418 734.23 132.04 734.469 132.517C734.724 132.977 735.091 133.31 735.568 133.514C736.045 133.702 736.616 133.795 737.281 133.795C737.759 133.795 738.261 133.753 738.79 133.668C739.335 133.565 739.744 133.48 740.017 133.412L741.909 142.438C741.313 142.608 740.469 142.821 739.378 143.077C738.304 143.332 737.017 143.494 735.517 143.562C732.585 143.699 730.071 143.358 727.974 142.54C725.895 141.705 724.301 140.409 723.193 138.653C722.102 136.898 721.574 134.69 721.608 132.031V94.3182Z" fill="black"/>
<path d="M96.2997 16.7273V25.9318H71.0384V16.7273H96.2997ZM76.3054 56V14.733C76.3054 11.6989 76.8764 9.18466 78.0185 7.19034C79.1605 5.17898 80.7457 3.67898 82.7741 2.69034C84.8026 1.68466 87.1463 1.18181 89.8054 1.18181C91.544 1.18181 93.1804 1.31818 94.7145 1.59091C96.2656 1.84659 97.4162 2.0767 98.1662 2.28125L96.1719 11.4347C95.7116 11.2812 95.1491 11.1534 94.4844 11.0511C93.8366 10.9489 93.223 10.8977 92.6435 10.8977C91.1776 10.8977 90.1719 11.2216 89.6264 11.8693C89.081 12.517 88.8082 13.4034 88.8082 14.5284V56H76.3054ZM127.653 39.0483V16.7273H140.13V56H128.215V48.6875H127.806C126.937 51.0909 125.454 53 123.357 54.4148C121.278 55.8125 118.763 56.5114 115.815 56.5114C113.138 56.5114 110.786 55.8977 108.758 54.6705C106.729 53.4432 105.153 51.7301 104.028 49.5312C102.903 47.3153 102.332 44.7244 102.315 41.7585V16.7273H114.817V39.304C114.835 41.4347 115.397 43.1136 116.505 44.3409C117.613 45.5682 119.121 46.1818 121.031 46.1818C122.275 46.1818 123.391 45.9091 124.38 45.3636C125.386 44.8011 126.178 43.9915 126.758 42.9347C127.354 41.8608 127.653 40.5653 127.653 39.0483ZM160.591 3.63636V56H148.088V3.63636H160.591ZM181.052 3.63636V56H168.549V3.63636H181.052ZM196.655 70.7273C195.155 70.7273 193.74 70.608 192.411 70.3693C191.081 70.1477 189.939 69.8494 188.984 69.4744L191.746 60.3977C192.973 60.8068 194.081 61.0455 195.07 61.1136C196.075 61.1818 196.936 61.0199 197.652 60.6278C198.385 60.2528 198.947 59.5795 199.339 58.608L199.825 57.4318L185.865 16.7273H198.956L206.192 44.75H206.601L213.939 16.7273H227.107L212.303 59.7585C211.587 61.9063 210.572 63.7983 209.26 65.4347C207.964 67.0881 206.286 68.3835 204.223 69.321C202.178 70.2585 199.655 70.7273 196.655 70.7273ZM269.69 16.7273V25.9318H244.429V16.7273H269.69ZM249.696 56V14.733C249.696 11.6989 250.267 9.18466 251.409 7.19034C252.551 5.17898 254.136 3.67898 256.165 2.69034C258.193 1.68466 260.537 1.18181 263.196 1.18181C264.935 1.18181 266.571 1.31818 268.105 1.59091C269.656 1.84659 270.807 2.0767 271.557 2.28125L269.562 11.4347C269.102 11.2812 268.54 11.1534 267.875 11.0511C267.227 10.9489 266.614 10.8977 266.034 10.8977C264.568 10.8977 263.563 11.2216 263.017 11.8693C262.472 12.517 262.199 13.4034 262.199 14.5284V56H249.696ZM292.798 56.7415C288.69 56.7415 285.144 55.9318 282.161 54.3125C279.195 52.6761 276.911 50.3494 275.309 47.3324C273.724 44.2983 272.931 40.6932 272.931 36.517C272.931 32.4602 273.732 28.9148 275.335 25.8807C276.937 22.8295 279.195 20.4602 282.11 18.7727C285.025 17.0682 288.46 16.2159 292.414 16.2159C295.21 16.2159 297.766 16.6506 300.085 17.5199C302.403 18.3892 304.406 19.6761 306.093 21.3807C307.781 23.0852 309.093 25.1903 310.031 27.696C310.968 30.1847 311.437 33.0398 311.437 36.2614V39.3807H277.303V32.1193H299.803C299.786 30.7898 299.471 29.6051 298.857 28.5653C298.244 27.5256 297.4 26.7159 296.326 26.1364C295.269 25.5398 294.05 25.2415 292.67 25.2415C291.272 25.2415 290.019 25.5568 288.911 26.1875C287.803 26.8011 286.925 27.6449 286.278 28.7188C285.63 29.7756 285.289 30.9773 285.255 32.3239V39.7131C285.255 41.3153 285.57 42.7216 286.201 43.9318C286.832 45.125 287.727 46.054 288.886 46.7188C290.045 47.3835 291.425 47.7159 293.028 47.7159C294.136 47.7159 295.141 47.5625 296.045 47.2557C296.948 46.9489 297.724 46.4972 298.371 45.9006C299.019 45.304 299.505 44.571 299.829 43.7017L311.309 44.0341C310.832 46.608 309.783 48.8494 308.164 50.7585C306.562 52.6506 304.457 54.125 301.849 55.1818C299.241 56.2216 296.224 56.7415 292.798 56.7415ZM328.893 56.6648C326.388 56.6648 324.163 56.2472 322.22 55.4119C320.294 54.5597 318.768 53.2812 317.643 51.5767C316.536 49.8551 315.982 47.6989 315.982 45.108C315.982 42.9261 316.365 41.0852 317.132 39.5852C317.899 38.0852 318.956 36.8665 320.303 35.929C321.649 34.9915 323.2 34.2841 324.956 33.8068C326.712 33.3125 328.587 32.9801 330.581 32.8097C332.814 32.6051 334.612 32.392 335.976 32.1705C337.339 31.9318 338.328 31.5994 338.942 31.1733C339.572 30.7301 339.888 30.108 339.888 29.3068V29.179C339.888 27.8665 339.436 26.8523 338.533 26.1364C337.629 25.4205 336.411 25.0625 334.876 25.0625C333.223 25.0625 331.893 25.4205 330.888 26.1364C329.882 26.8523 329.243 27.8409 328.97 29.1023L317.439 28.6932C317.78 26.3068 318.658 24.1761 320.072 22.3011C321.504 20.4091 323.464 18.9261 325.953 17.8523C328.459 16.7614 331.467 16.2159 334.979 16.2159C337.484 16.2159 339.794 16.5142 341.908 17.1108C344.021 17.6903 345.862 18.5426 347.43 19.6676C348.999 20.7756 350.209 22.1392 351.061 23.7585C351.93 25.3778 352.365 27.2273 352.365 29.3068V56H340.604V50.5284H340.297C339.598 51.858 338.703 52.983 337.612 53.9034C336.538 54.8239 335.268 55.5142 333.803 55.9744C332.354 56.4347 330.717 56.6648 328.893 56.6648ZM332.754 48.483C334.101 48.483 335.311 48.2102 336.385 47.6648C337.476 47.1193 338.345 46.3693 338.993 45.4148C339.641 44.4432 339.964 43.3182 339.964 42.0398V38.3068C339.607 38.4943 339.172 38.6648 338.661 38.8182C338.166 38.9716 337.621 39.1165 337.024 39.2528C336.428 39.3892 335.814 39.5085 335.183 39.6108C334.553 39.7131 333.947 39.8068 333.368 39.892C332.192 40.0795 331.186 40.3693 330.351 40.7614C329.533 41.1534 328.902 41.6648 328.459 42.2955C328.033 42.9091 327.82 43.642 327.82 44.4943C327.82 45.7898 328.28 46.7784 329.2 47.4602C330.138 48.142 331.322 48.483 332.754 48.483ZM382.178 16.7273V25.9318H357.402V16.7273H382.178ZM362.592 7.31818H375.095V43.6506C375.095 44.4176 375.214 45.0398 375.453 45.517C375.709 45.9773 376.075 46.3097 376.553 46.5142C377.03 46.7017 377.601 46.7955 378.266 46.7955C378.743 46.7955 379.246 46.7528 379.774 46.6676C380.32 46.5653 380.729 46.4801 381.001 46.4119L382.893 55.4375C382.297 55.608 381.453 55.821 380.362 56.0767C379.288 56.3324 378.001 56.4943 376.501 56.5625C373.57 56.6989 371.055 56.358 368.959 55.5398C366.879 54.7045 365.286 53.4091 364.178 51.6534C363.087 49.8977 362.558 47.6903 362.592 45.0312V7.31818ZM413.895 39.0483V16.7273H426.372V56H414.457V48.6875H414.048C413.179 51.0909 411.696 53 409.599 54.4148C407.52 55.8125 405.006 56.5114 402.057 56.5114C399.381 56.5114 397.028 55.8977 395 54.6705C392.972 53.4432 391.395 51.7301 390.27 49.5312C389.145 47.3153 388.574 44.7244 388.557 41.7585V16.7273H401.06V39.304C401.077 41.4347 401.639 43.1136 402.747 44.3409C403.855 45.5682 405.364 46.1818 407.273 46.1818C408.517 46.1818 409.634 45.9091 410.622 45.3636C411.628 44.8011 412.42 43.9915 413 42.9347C413.597 41.8608 413.895 40.5653 413.895 39.0483ZM434.33 56V16.7273H446.475V23.8864H446.884C447.6 21.2955 448.768 19.3693 450.387 18.108C452.006 16.8295 453.89 16.1903 456.038 16.1903C456.617 16.1903 457.214 16.233 457.827 16.3182C458.441 16.3864 459.012 16.4972 459.54 16.6506V27.517C458.944 27.3125 458.16 27.1506 457.188 27.0312C456.234 26.9119 455.381 26.8523 454.631 26.8523C453.148 26.8523 451.81 27.1847 450.617 27.8494C449.441 28.4972 448.512 29.4091 447.83 30.5852C447.165 31.7443 446.833 33.108 446.833 34.6761V56H434.33ZM480.954 56.7415C476.846 56.7415 473.3 55.9318 470.317 54.3125C467.352 52.6761 465.067 50.3494 463.465 47.3324C461.88 44.2983 461.087 40.6932 461.087 36.517C461.087 32.4602 461.888 28.9148 463.491 25.8807C465.093 22.8295 467.352 20.4602 470.266 18.7727C473.181 17.0682 476.616 16.2159 480.57 16.2159C483.366 16.2159 485.923 16.6506 488.241 17.5199C490.559 18.3892 492.562 19.6761 494.249 21.3807C495.937 23.0852 497.249 25.1903 498.187 27.696C499.124 30.1847 499.593 33.0398 499.593 36.2614V39.3807H465.46V32.1193H487.96C487.942 30.7898 487.627 29.6051 487.013 28.5653C486.4 27.5256 485.556 26.7159 484.482 26.1364C483.425 25.5398 482.207 25.2415 480.826 25.2415C479.428 25.2415 478.175 25.5568 477.067 26.1875C475.96 26.8011 475.082 27.6449 474.434 28.7188C473.786 29.7756 473.445 30.9773 473.411 32.3239V39.7131C473.411 41.3153 473.727 42.7216 474.357 43.9318C474.988 45.125 475.883 46.054 477.042 46.7188C478.201 47.3835 479.582 47.7159 481.184 47.7159C482.292 47.7159 483.298 47.5625 484.201 47.2557C485.104 46.9489 485.88 46.4972 486.528 45.9006C487.175 45.304 487.661 44.571 487.985 43.7017L499.465 44.0341C498.988 46.608 497.94 48.8494 496.32 50.7585C494.718 52.6506 492.613 54.125 490.005 55.1818C487.397 56.2216 484.38 56.7415 480.954 56.7415ZM520.322 56.5625C517.425 56.5625 514.791 55.8125 512.422 54.3125C510.053 52.8125 508.161 50.5625 506.746 47.5625C505.331 44.5625 504.624 40.8381 504.624 36.3892C504.624 31.7699 505.357 27.9687 506.822 24.9858C508.288 22.0028 510.206 19.7955 512.575 18.3636C514.962 16.9318 517.527 16.2159 520.271 16.2159C522.334 16.2159 524.098 16.5739 525.564 17.2898C527.03 17.9886 528.24 18.892 529.195 20C530.149 21.108 530.874 22.2585 531.368 23.4517H531.624V3.63636H544.126V56H531.751V49.6335H531.368C530.839 50.8438 530.089 51.9773 529.118 53.0341C528.146 54.0909 526.928 54.9432 525.462 55.5909C524.013 56.2386 522.3 56.5625 520.322 56.5625ZM524.669 46.821C526.186 46.821 527.482 46.3949 528.555 45.5426C529.629 44.6733 530.456 43.4545 531.036 41.8864C531.615 40.3182 531.905 38.4773 531.905 36.3636C531.905 34.2159 531.615 32.3665 531.036 30.8153C530.473 29.2642 529.646 28.071 528.555 27.2358C527.482 26.4006 526.186 25.983 524.669 25.983C523.118 25.983 521.805 26.4091 520.732 27.2614C519.658 28.1136 518.839 29.3153 518.277 30.8665C517.732 32.4176 517.459 34.25 517.459 36.3636C517.459 38.4773 517.74 40.3182 518.303 41.8864C518.865 43.4545 519.675 44.6733 520.732 45.5426C521.805 46.3949 523.118 46.821 524.669 46.821Z" fill="url(#paint0_angular_1_3)"/>
<defs>
<linearGradient id="paint0_angular_1_3" x1="0" x2="1" y1="0" y2="0.7">
<stop stop-color="#4c6ef5" offset="0%"/>
<stop stop-color="#15aabf" offset="100%"/>
</linearGradient>
</defs>
</svg>
